PathFileType	4	(X/Y/Z)	s05c0302.trc
DataRate	CameraRate	NumFrames	NumMarkers	Units	OrigDataRate	OrigDataStartFrame	OrigNumFrames
200	200	4	49	mm	200	0	2000
Frame#	Time	racr			lacr			c7			jug			rlel			rdr			llel			ldr			s2			lic			ric			lasi			rasi			rpsi			lpsi			rgt			lgt			rth1			rth2			rth3			rth4			rlfc			rsh1			rsh2			rsh3			rsh4			rlmal			rmmal			rcal			rtoe			rmt5			lth1			lth2			lth4			lth3			llfc			lmfc			lsh1			lsh2			lsh3			lsh4			llmal			lmmal			lcal			ltoe			lmt5			SBIKE			LBIKE			RBIKE			
		X1	Y1	Z1	X2	Y2	Z2	X3	Y3	Z3	X4	Y4	Z4	X5	Y5	Z5	X6	Y6	Z6	X7	Y7	Z7	X8	Y8	Z8	X9	Y9	Z9	X10	Y10	Z10	X11	Y11	Z11	X12	Y12	Z12	X13	Y13	Z13	X14	Y14	Z14	X15	Y15	Z15	X16	Y16	Z16	X17	Y17	Z17	X18	Y18	Z18	X19	Y19	Z19	X20	Y20	Z20	X21	Y21	Z21	X22	Y22	Z22	X23	Y23	Z23	X24	Y24	Z24	X25	Y25	Z25	X26	Y26	Z26	X27	Y27	Z27	X28	Y28	Z28	X29	Y29	Z29	X30	Y30	Z30	X31	Y31	Z31	X32	Y32	Z32	X33	Y33	Z33	X34	Y34	Z34	X35	Y35	Z35	X36	Y36	Z36	X37	Y37	Z37	X38	Y38	Z38	X39	Y39	Z39	X40	Y40	Z40	X41	Y41	Z41	X42	Y42	Z42	X43	Y43	Z43	X44	Y44	Z44	X45	Y45	Z45	X46	Y46	Z46	X47	Y47	Z47	X48	Y48	Z48	X49	Y49	Z49	
0	0.0000	416.453137	1355.915963	-147.200171	425.835165	1371.762382	-433.094497	398.999933	1443.256975	-293.636681	384.838543	1286.881868	-292.356191	523.820380	1120.268343	-62.800842	695.680673	915.869021	-104.939953	507.288468	1119.236057	-525.684787	688.081989	915.036176	-469.133144	-122.133615	1161.823571	-276.445319	26.140151	1165.384743	-421.726056	35.494303	1189.103482	-143.102959	72.333280	1112.710582	-387.024258	69.720976	1125.447487	-169.094169	-87.012030	1207.767912	-237.967467	-84.179910	1208.034181	-325.421495	-14.126678	1065.489654	-102.627091	-51.271660	1063.990172	-446.481752	87.640255	1007.029535	-87.268844	175.466575	991.156959	-86.144628	242.158373	933.234796	-89.500111	190.338811	1022.795067	-98.125413	374.563449	856.763112	-117.545362	314.098851	763.266082	-94.529983	307.089920	675.112503	-105.310850	260.366627	603.724955	-109.964714	335.132961	667.487724	-130.402324	223.286853	474.692373	-121.688081	234.032231	508.435356	-198.506305	152.888141	437.005207	-166.782577	448.201099	435.096574	-159.952571	348.933865	404.789927	-95.439005	29.663596	945.695943	-470.895274	101.145453	898.953811	-474.778172	130.193869	920.131559	-463.580966	139.875118	816.334455	-478.251675	218.682163	687.133393	-452.518446	210.472760	680.436026	-343.163578	129.925086	595.504766	-471.595633	95.074397	516.583969	-455.100599	22.903563	464.989186	-451.669006	119.780644	500.871228	-430.073215	-49.483118	368.221290	-435.996479	-14.919756	389.327561	-361.988719	-121.491914	345.062072	-390.627447	153.097268	240.402637	-401.619966	41.238002	247.406581	-462.049008	-176.404270	897.971404	-273.415233	-53.405227	79.223964	-474.890064	-53.199917	78.821214	-77.171595	
1	0.0050	416.451718	1355.910797	-147.193454	425.847354	1371.749957	-433.092367	399.055882	1443.166146	-293.716788	384.816490	1286.867542	-292.359772	523.791680	1120.259380	-62.824870	695.673343	915.885313	-104.955197	507.303450	1119.243528	-525.662935	688.092141	915.048418	-469.150141	-122.126420	1161.805344	-276.498023	26.147985	1165.405310	-421.770795	35.483025	1189.060313	-143.119221	72.364389	1112.716718	-387.051380	69.694684	1125.440611	-169.107309	-87.015525	1207.757741	-238.020248	-84.165143	1208.017838	-325.460031	-14.102200	1065.474733	-102.659122	-51.257683	1063.957485	-446.509203	87.684797	1007.114089	-87.301911	175.533715	991.290207	-86.183629	242.264693	933.456753	-89.522186	190.370057	1022.964345	-98.167811	374.724481	857.076670	-117.568466	314.218744	763.514194	-94.574319	307.126797	675.373816	-105.353688	260.388487	604.039536	-109.989010	335.189697	667.744222	-130.439682	223.238735	475.002034	-121.703019	233.972232	508.724716	-198.531738	152.840052	437.368225	-166.833720	448.120486	435.272961	-159.957948	348.789982	405.110480	-95.426879	29.644830	945.627331	-470.915838	101.112636	898.813846	-474.749396	130.151796	919.990897	-463.574001	139.780044	816.203111	-478.216714	218.510397	686.936249	-452.468882	210.348926	680.286693	-343.127284	129.787404	595.326382	-471.588947	94.985827	516.339762	-455.076289	22.831500	464.704033	-451.673685	119.715231	500.655894	-430.055996	-49.475115	367.903837	-435.992248	-14.900560	389.011730	-362.008946	-121.475961	344.719252	-390.651060	153.186511	240.265105	-401.626525	41.330810	247.131303	-462.051014	-176.196054	897.968780	-273.226755	-53.420474	79.234968	-474.895441	-53.193589	78.803667	-77.173456	
2	0.0100	416.433897	1355.908877	-147.200641	425.835147	1371.742129	-433.093637	399.071242	1443.168944	-293.707585	384.816457	1286.859729	-292.359828	523.746156	1120.238590	-62.818011	695.666019	915.902926	-104.952393	507.311406	1119.248519	-525.644234	688.108557	915.062979	-469.191992	-122.115698	1161.795266	-276.523365	26.154045	1165.390173	-421.810479	35.467247	1189.039405	-143.141808	72.373020	1112.714759	-387.071651	69.665825	1125.423811	-169.133355	-87.037999	1207.750907	-238.049875	-84.168056	1208.007845	-325.498281	-14.085702	1065.481264	-102.683956	-51.258628	1063.913823	-446.535784	87.719143	1007.196935	-87.329877	175.569619	991.444159	-86.211686	242.340447	933.654733	-89.518746	190.397318	1023.169393	-98.190061	374.831412	857.281251	-117.594025	314.327866	763.797598	-94.602611	307.183016	675.625355	-105.407184	260.440316	604.303735	-110.030552	335.236071	668.020037	-130.464693	223.217192	475.320600	-121.718478	233.902784	509.063174	-198.574919	152.748191	437.719815	-166.861246	448.039374	435.446319	-159.956408	348.683692	405.355754	-95.436458	29.624886	945.552495	-470.926288	101.071887	898.700019	-474.729235	130.116218	919.863233	-463.547518	139.680255	816.089596	-478.196010	218.363271	686.782827	-452.427600	210.196813	680.155609	-343.051344	129.660519	595.127517	-471.560161	94.827850	515.947633	-455.104222	22.783130	464.456619	-451.647082	120.277724	500.483100	-431.566124	-49.464039	367.581263	-435.992504	-14.891623	388.655772	-362.018912	-121.450947	344.375013	-390.675972	153.276032	240.081942	-401.613876	41.431932	246.864865	-462.066244	-176.152528	897.930930	-273.103433	-53.414128	79.235153	-474.898352	-53.208023	78.816222	-77.177373	
3	0.0150	416.453297	1355.899197	-147.193680	425.815993	1371.731524	-433.082518	399.086481	1443.138449	-293.715674	384.806945	1286.836344	-292.345668	523.692121	1120.218347	-62.806463	695.621550	915.947502	-104.901098	507.305327	1119.257906	-525.625390	688.098966	915.053089	-469.192191	-122.122686	1161.777413	-276.555603	26.188658	1165.395888	-421.832144	35.809594	1189.278219	-143.306780	72.252518	1113.335059	-387.433685	69.105184	1125.395200	-169.880913	-87.027154	1207.740178	-238.088461	-84.148016	1208.004679	-325.537302	-14.215790	1065.416560	-102.674537	-51.248450	1063.877831	-446.564032	87.746823	1007.303060	-87.350956	175.605043	991.589185	-86.245828	242.397181	933.851832	-89.542208	190.373991	1023.372377	-98.211478	374.947792	857.496962	-117.642499	314.457034	764.038084	-94.636673	307.033854	675.756018	-106.161891	260.485956	604.590529	-110.080951	336.722158	669.270881	-130.654038	222.864824	476.175105	-121.444699	233.982438	509.343966	-198.597221	152.676149	438.023610	-166.861835	447.956126	435.654220	-159.970056	348.817974	405.500690	-95.549848	29.583556	945.452599	-470.939682	101.198577	897.922374	-474.386760	129.886743	919.613429	-463.293542	139.558564	815.898059	-478.132286	218.202908	686.626787	-452.351060	210.043397	680.001788	-342.968044	129.537779	594.945344	-471.548883	94.748644	515.740706	-455.085875	22.663576	464.227007	-451.686600	119.627343	500.607202	-430.384580	-49.490523	367.342678	-436.019668	-14.632664	388.217346	-362.106592	-121.391652	344.076600	-390.830672	153.376102	239.889387	-401.617936	41.524264	246.616098	-462.065240	-176.164102	897.951703	-273.151315	-53.419857	79.228412	-474.901875	-53.202708	78.824133	-77.184280	
